<?xml version="1.0" encoding="UTF-8" standalone="no"?>
<!-- Created with Inkscape (http://www.inkscape.org/) -->

<svg
   width="120"
   height="120"
   viewBox="0 0 120 120"
   version="1.1"
   id="svg5"
   inkscape:export-filename="bitmap.svg"
   inkscape:export-xdpi="96"
   inkscape:export-ydpi="96"
   inkscape:version="1.3.2 (091e20e, 2023-11-25, custom)"
   sodipodi:docname="draw.svg"
   xmlns:inkscape="http://www.inkscape.org/namespaces/inkscape"
   xmlns:sodipodi="http://sodipodi.sourceforge.net/DTD/sodipodi-0.dtd"
   xmlns="http://www.w3.org/2000/svg"
   xmlns:svg="http://www.w3.org/2000/svg">
  <sodipodi:namedview
     id="namedview7"
     pagecolor="#505050"
     bordercolor="#eeeeee"
     borderopacity="1"
     inkscape:showpageshadow="0"
     inkscape:pageopacity="0"
     inkscape:pagecheckerboard="0"
     inkscape:deskcolor="#505050"
     inkscape:document-units="px"
     showgrid="false"
     inkscape:zoom="3.2692123"
     inkscape:cx="62.706237"
     inkscape:cy="71.729817"
     inkscape:window-width="1920"
     inkscape:window-height="1057"
     inkscape:window-x="-8"
     inkscape:window-y="-8"
     inkscape:window-maximized="1"
     inkscape:current-layer="layer5" />
  <defs
     id="defs2">
    <rect
       x="26.611915"
       y="21.106001"
       width="117.76537"
       height="127.55366"
       id="rect2" />
    <rect
       x="27.529567"
       y="27.529567"
       width="42.212003"
       height="52.306178"
       id="rect1" />
    <inkscape:path-effect
       effect="fillet_chamfer"
       id="path-effect17435"
       is_visible="true"
       lpeversion="1"
       nodesatellites_param="F,0,0,1,0,1.5,0,1 @ F,0,0,1,0,1.5,0,1 @ F,0,0,1,0,1.5,0,1 @ F,0,0,1,0,1.5,0,1"
       unit="px"
       method="auto"
       mode="F"
       radius="1.5"
       chamfer_steps="1"
       flexible="false"
       use_knot_distance="true"
       apply_no_radius="true"
       apply_with_radius="true"
       only_selected="false"
       hide_knots="false" />
    <inkscape:path-effect
       effect="fillet_chamfer"
       id="path-effect17431"
       is_visible="true"
       lpeversion="1"
       nodesatellites_param="F,0,0,1,0,1.5,0,1 @ F,0,0,1,0,1.5,0,1 @ F,0,0,1,0,1.5,0,1 @ F,0,0,1,0,1.5,0,1"
       unit="px"
       method="auto"
       mode="F"
       radius="1.5"
       chamfer_steps="1"
       flexible="false"
       use_knot_distance="true"
       apply_no_radius="true"
       apply_with_radius="true"
       only_selected="false"
       hide_knots="false" />
    <inkscape:path-effect
       effect="fillet_chamfer"
       id="path-effect17408"
       is_visible="true"
       lpeversion="1"
       nodesatellites_param="F,0,0,1,0,1.5,0,1 @ F,0,0,1,0,1.5,0,1 @ F,0,0,1,0,1.5,0,1 @ F,0,0,1,0,1.5,0,1"
       unit="px"
       method="auto"
       mode="F"
       radius="1.5"
       chamfer_steps="1"
       flexible="false"
       use_knot_distance="true"
       apply_no_radius="true"
       apply_with_radius="true"
       only_selected="false"
       hide_knots="false" />
    <inkscape:path-effect
       effect="fillet_chamfer"
       id="path-effect17404"
       is_visible="true"
       lpeversion="1"
       nodesatellites_param="F,0,0,1,0,1.5,0,1 @ F,0,0,1,0,1.5,0,1 @ F,0,0,1,0,1.5,0,1 @ F,0,0,1,0,1.5,0,1"
       unit="px"
       method="auto"
       mode="F"
       radius="1.5"
       chamfer_steps="1"
       flexible="false"
       use_knot_distance="true"
       apply_no_radius="true"
       apply_with_radius="true"
       only_selected="false"
       hide_knots="false" />
    <inkscape:path-effect
       effect="fillet_chamfer"
       id="path-effect13721"
       is_visible="true"
       lpeversion="1"
       nodesatellites_param="F,0,0,1,0,1.5,0,1 @ F,0,0,1,0,1.5,0,1 @ F,0,0,1,0,1.5,0,1 @ F,0,0,1,0,1.5,0,1"
       unit="px"
       method="auto"
       mode="F"
       radius="1.5"
       chamfer_steps="1"
       flexible="false"
       use_knot_distance="true"
       apply_no_radius="true"
       apply_with_radius="true"
       only_selected="false"
       hide_knots="false" />
    <inkscape:path-effect
       effect="fillet_chamfer"
       id="path-effect13711"
       is_visible="true"
       lpeversion="1"
       nodesatellites_param="F,0,0,1,0,1.5,0,1 @ F,0,0,1,0,1.5,0,1 @ F,0,0,1,0,1.5,0,1 @ F,0,0,1,0,1.5,0,1"
       unit="px"
       method="auto"
       mode="F"
       radius="1.5"
       chamfer_steps="1"
       flexible="false"
       use_knot_distance="true"
       apply_no_radius="true"
       apply_with_radius="true"
       only_selected="false"
       hide_knots="false" />
    <rect
       x="26.648782"
       y="26.532187"
       width="65.126917"
       height="65.513034"
       id="rect5322" />
    <rect
       x="26.611915"
       y="21.106001"
       width="117.76537"
       height="127.55366"
       id="rect3" />
  </defs>
  <g
     inkscape:label="Circle"
     inkscape:groupmode="layer"
     id="layer1"
     style="display:inline">
    <ellipse
       style="fill:#545250;fill-opacity:1;stroke:none;stroke-width:0.999462"
       id="path111"
       cx="60"
       cy="60.385693"
       rx="60"
       ry="59.773922" />
  </g>
  <g
     inkscape:groupmode="layer"
     id="layer2"
     inkscape:label="shadow">
    <path
       d="M 38.375904,65.969456 H 28.196036 V 44.916429 h -8.38342 V 38.60399 q 4.303988,0 6.848955,-1.213931 2.544967,-1.248615 2.844375,-3.81521 h 8.869958 z M 74.454548,33.401431 45.075154,85.357662 h -9.88046 L 64.574091,33.401431 Z m 22.979553,51.956231 h -29.60395 v -6.555226 q 2.61982,-1.4914 5.277062,-3.121536 2.69467,-1.630135 4.640822,-3.052168 3.892301,-2.87875 5.015082,-4.647621 1.122779,-1.803553 1.122779,-3.884578 0,-2.011656 -1.534462,-3.121535 -1.497039,-1.10988 -4.341413,-1.10988 -2.61982,0 -5.164788,1.040512 -2.544967,1.005828 -3.929728,1.734187 h -0.860798 v -8.220044 q 2.619819,-0.83241 5.838455,-1.456718 3.256057,-0.65899 7.073507,-0.65899 6.886381,0 10.516705,2.566596 3.630316,2.566596 3.630316,7.352951 0,3.017485 -1.422187,5.584081 -1.422187,2.566597 -5.539045,6.000286 -1.272484,1.040512 -2.769523,2.081024 -1.497039,1.005828 -3.443191,2.323809 h 15.494357 z"
       id="text3"
       style="font-weight:bold;font-size:96px;line-height:0;font-family:Tahoma;-inkscape-font-specification:'Tahoma Bold';white-space:pre;fill-opacity:0.4;stroke-width:13.0634;stroke-linejoin:round"
       aria-label="½" />
  </g>
  <g
     inkscape:groupmode="layer"
     id="layer5"
     inkscape:label="Fraction"
     style="display:inline">
    <path
       style="font-weight:bold;font-size:96px;line-height:0;font-family:Tahoma;-inkscape-font-specification:'Tahoma Bold';white-space:pre;fill:#ffffff;stroke-width:13.0634;stroke-linejoin:round"
       d="M 38.375904,63.76256 H 28.196036 V 42.709535 h -8.38342 v -6.312439 q 4.303988,0 6.848955,-1.213931 2.544967,-1.248615 2.844375,-3.815211 h 8.869958 z M 74.454548,31.194536 45.075154,83.150767 h -9.88046 L 64.574091,31.194536 Z m 22.979553,51.956231 h -29.60395 v -6.555226 q 2.61982,-1.4914 5.277062,-3.121536 2.69467,-1.630135 4.640822,-3.052168 3.892301,-2.87875 5.015082,-4.64762 1.122779,-1.803554 1.122779,-3.884578 0,-2.011657 -1.534462,-3.121537 -1.497039,-1.109879 -4.341413,-1.109879 -2.61982,0 -5.164788,1.040512 -2.544967,1.005829 -3.929728,1.734186 h -0.860798 v -8.220043 q 2.619819,-0.832409 5.838455,-1.456717 3.256057,-0.658991 7.073507,-0.658991 6.886381,0 10.516705,2.566596 3.630316,2.566597 3.630316,7.352951 0,3.017486 -1.422187,5.584081 -1.422187,2.566597 -5.539045,6.000286 -1.272484,1.040512 -2.769523,2.081024 -1.497039,1.005829 -3.443191,2.32381 h 15.494357 z"
       id="text2"
       aria-label="½" />
  </g>
</svg>
