<?xml version="1.0" encoding="iso-8859-1"?>
<!-- Uploaded to: SVG Repo, www.svgrepo.com, Generator: SVG Repo Mixer Tools -->
<svg height="800px" width="800px" version="1.1" id="Layer_1" xmlns="http://www.w3.org/2000/svg" xmlns:xlink="http://www.w3.org/1999/xlink" 
	 viewBox="0 0 512 512" xml:space="preserve">
<path style="fill:#F95428;" d="M487.789,205.527c20.047,20.047,20.059,52.544,0.023,72.591
	c-10.024,10.012-23.151,15.024-36.29,15.012l-0.012,0.012h-0.023l0.023-102.651C464.638,190.503,477.777,195.514,487.789,205.527z"
	/>
<polygon style="fill:#E6E6E6;" points="451.511,190.491 451.488,293.142 451.465,378.032 451.453,420.3 374.092,408.23 
	374.103,378.021 374.126,293.142 374.161,190.48 374.172,105.543 374.172,75.391 451.545,63.276 451.534,105.543 "/>
<polygon style="fill:#CCCCCC;" points="451.453,349.609 374.115,337.542 374.103,378.021 374.092,408.23 451.453,420.3 
	451.465,378.032 "/>
<polygon style="fill:#F95428;" points="167.446,336.19 93.314,321.178 87.05,319.902 49.737,312.338 49.852,284.624 50.219,201.503 
	50.346,170.926 374.103,105.543 374.172,105.543 374.161,190.48 374.126,293.142 374.103,378.021 216.84,346.191 "/>
<polyline style="fill:#E03F20;" points="374.103,321.124 49.86,282.886 49.852,284.624 49.737,312.338 374.103,378.021 "/>
<polygon style="fill:#E6E6E6;" points="216.84,346.191 195.126,414.138 148.41,414.115 167.446,336.19 "/>
<polygon style="fill:#808080;" points="167.446,336.19 148.41,414.115 139.812,449.325 84.038,449.325 92.648,324.466 
	93.314,321.178 "/>
<polygon style="fill:#CCCCCC;" points="50.219,201.503 49.852,284.624 8.044,284.624 8.044,201.503 "/>
<path d="M494.462,199.131c-9.25-9.25-21.001-15.101-33.751-16.934l0.031-119.217c0.001-2.52-1.101-4.914-3.015-6.552
	c-1.914-1.638-4.447-2.358-6.94-1.967l-77.373,12.116c-4.195,0.656-7.288,4.27-7.288,8.518l-0.001,23.084l-246.52,49.785
	c-4.668,0.943-7.688,5.49-6.744,10.157c0.826,4.091,4.423,6.917,8.442,6.917c0.566,0,1.139-0.056,1.715-0.172l243.106-49.095
	l-0.002,40.208c0,4.761,3.859,8.621,8.62,8.622c0.001,0,0,0,0.001,0c4.761,0,8.621-3.859,8.621-8.62l0.006-73.508l60.128-9.416
	l-0.086,336.877l-60.119-9.38l0.067-210.367c0.001-4.761-3.857-8.622-8.618-8.624c-0.001,0-0.002,0-0.003,0
	c-4.76,0-8.62,3.858-8.621,8.619l-0.056,177.003L58.964,304.995l0.551-127.309l35.661-7.203c4.668-0.943,7.688-5.49,6.744-10.157
	c-0.941-4.667-5.487-7.686-10.157-6.744l-42.548,8.593c-4.009,0.809-6.898,4.324-6.915,8.414l-0.095,21.991H8.621
	c-4.762,0-8.621,3.86-8.621,8.621v83.121c0,4.761,3.859,8.621,8.621,8.621h33.153l-0.083,19.058
	c-0.017,4.115,2.876,7.667,6.909,8.486l108.919,22.07l-23.899,97.845H93.582l3.653-92.705c0.187-4.758-3.517-8.766-8.275-8.955
	c-4.759-0.177-8.766,3.519-8.953,8.275l-4.006,101.667c-0.092,2.344,0.775,4.623,2.4,6.314c1.625,1.691,3.869,2.646,6.214,2.646
	h55.775c3.974,0,7.433-2.716,8.375-6.576l6.992-28.63l39.942,0.02c0.002,0,0.003,0,0.005,0c3.751,0,7.071-2.424,8.213-5.997
	l19.363-60.591l142.776,28.9l-0.007,23.156c-0.002,4.25,3.093,7.866,7.292,8.521l77.362,12.07c0.444,0.07,0.886,0.103,1.329,0.103
	c2.04,0,4.034-0.725,5.606-2.071c1.913-1.637,3.014-4.029,3.015-6.548l0.031-119.159c12.745-1.81,24.521-7.658,33.806-16.931
	C517.848,260.537,517.836,222.505,494.462,199.131z M17.243,275.703v-65.878h24.89l-0.284,65.878H17.243z M189.408,405.214
	l-29.44-0.014l14.464-59.215l31.844,6.445L189.408,405.214z M460.714,283.348l-0.014-52.636l0.008-31.022
	c8.118,1.66,15.576,5.646,21.562,11.633c16.653,16.653,16.663,43.749,0.026,60.395C476.294,277.713,468.829,281.698,460.714,283.348
	z"/>
</svg>