<?xml version="1.0" encoding="iso-8859-1"?>
<!-- Uploaded to: SVG Repo, www.svgrepo.com, Generator: SVG Repo Mixer Tools -->
<svg height="800px" width="800px" version="1.1" id="Layer_1" xmlns="http://www.w3.org/2000/svg" xmlns:xlink="http://www.w3.org/1999/xlink" 
	 viewBox="0 0 364.592 364.592" xml:space="preserve">
<g>
	<g>
		<g>
			<path style="fill:#61B4E4;" d="M170.459,297.089c-1.806,0-3.646-0.171-5.467-0.508L93.68,283.39
				c-16.03-2.965-28.587-18.058-28.587-34.36v-33.698c0-15.62,11.545-27.399,26.854-27.399c1.806,0,3.646,0.171,5.467,0.508
				l71.313,13.191c16.03,2.965,28.587,18.058,28.587,34.36v33.698C197.313,285.31,185.769,297.089,170.459,297.089z M91.947,208.464
				c-3.9,0-6.323,2.632-6.323,6.868v33.698c0,6.388,5.509,13.01,11.79,14.171l71.313,13.191c0.594,0.11,1.176,0.166,1.732,0.166
				c3.9,0,6.323-2.632,6.323-6.868v-33.698c0-6.388-5.509-13.01-11.79-14.171L93.68,208.63
				C93.086,208.52,92.503,208.464,91.947,208.464z"/>
			<polygon style="fill:#005CB9;" points="248.114,82.899 30.083,124.522 30.083,229.71 248.114,271.332 			"/>
			<path style="fill:#61B4E4;" d="M38.296,233.35c0,8.503-6.894,15.397-15.398,15.397S7.501,241.853,7.501,233.35V120.883
				c0-8.504,6.894-15.397,15.397-15.397c8.505,0,15.398,6.894,15.398,15.397V233.35z"/>
			<path style="fill:#61B4E4;" d="M263.512,271.332c0,8.504-6.894,15.398-15.397,15.398s-15.397-6.894-15.397-15.398V82.899
				c0-8.504,6.894-15.397,15.397-15.397c8.503,0,15.397,6.894,15.397,15.397V271.332z"/>
		</g>
	</g>
	<path style="fill:#071C2C;" d="M310.99,99.662c-3.817-1.614-8.216,0.168-9.83,3.983c-1.615,3.814,0.169,8.216,3.983,9.83
		c27.002,11.429,44.45,37.717,44.45,66.972c0,29.244-17.438,55.527-44.425,66.96c-3.814,1.616-5.596,6.018-3.98,9.832
		c1.211,2.859,3.988,4.576,6.909,4.576c0.976,0,1.967-0.191,2.922-0.596c32.544-13.788,53.573-45.493,53.573-80.772
		C364.593,145.154,343.552,113.444,310.99,99.662z M335.361,180.449c0-23.528-14.024-44.666-35.729-53.851
		c-3.814-1.617-8.215,0.169-9.83,3.984c-1.615,3.814,0.169,8.215,3.984,9.83c16.144,6.833,26.575,22.548,26.575,40.038
		c0,17.481-10.425,33.194-26.56,40.03c-3.814,1.616-5.596,6.018-3.98,9.832c1.211,2.859,3.988,4.576,6.909,4.576
		c0.976,0,1.968-0.192,2.922-0.596C321.345,225.098,335.361,203.964,335.361,180.449z M306.13,180.449
		c0-11.766-7.002-22.332-17.839-26.916c-3.815-1.615-8.215,0.17-9.83,3.985c-1.614,3.815,0.17,8.216,3.985,9.83
		c5.275,2.232,8.684,7.375,8.684,13.102c0,5.731-3.412,10.875-8.692,13.104c-3.816,1.611-5.603,6.011-3.992,9.827
		c1.209,2.863,3.988,4.584,6.913,4.584c0.973,0,1.961-0.19,2.914-0.593C299.121,202.79,306.13,192.223,306.13,180.449z
		 M248.114,60.002c-11.501,0-21.045,8.525-22.655,19.587L44.765,114.083c-2.903-9.316-11.608-16.098-21.868-16.098
		C10.272,97.985,0,108.257,0,120.883V233.35c0,12.625,10.272,22.897,22.897,22.897c10.26,0,18.965-6.782,21.868-16.098l12.827,2.449
		v6.433c0,19.801,15.252,38.133,34.723,41.735l71.313,13.191c2.272,0.42,4.57,0.633,6.831,0.633
		c19.252,0,33.84-14.501,34.331-33.892l20.669,3.945c1.609,11.063,11.154,19.587,22.655,19.587
		c12.625,0,22.897-10.272,22.897-22.898V82.899C271.012,70.274,260.74,60.002,248.114,60.002z M30.796,233.35
		c0,4.354-3.543,7.897-7.898,7.897c-4.354,0-7.897-3.543-7.897-7.897V120.883c0-4.354,3.543-7.897,7.897-7.897
		c4.355,0,7.898,3.543,7.898,7.897C30.796,120.883,30.796,233.35,30.796,233.35z M189.813,269.69c0,11.53-8.14,19.899-19.354,19.899
		c-1.348,0-2.728-0.129-4.103-0.383l-71.313-13.191c-12.38-2.29-22.451-14.396-22.451-26.985v-3.569l5.943,1.135
		c-0.263,0.764-0.412,1.581-0.412,2.435c0,10.053,8.042,19.718,17.926,21.546l71.312,13.191c1.042,0.193,2.084,0.291,3.097,0.291
		c8.01,0,13.823-6.042,13.823-14.368v-2.908l5.531,1.056v1.851H189.813z M93.146,249.384l76.136,14.534v4.95l-70.504-13.042
		C96.145,255.339,93.374,252.113,93.146,249.384z M225.217,259.325L45.796,225.074v-17.021l179.421,26.517L225.217,259.325
		L225.217,259.325z M225.217,219.408L45.796,192.891v-63.732l179.421-34.251L225.217,219.408L225.217,219.408z M256.012,271.332
		c0,4.355-3.543,7.898-7.897,7.898s-7.897-3.543-7.897-7.898V82.899c0-4.354,3.543-7.897,7.897-7.897s7.897,3.543,7.897,7.897
		V271.332z"/>
</g>
</svg>