<?xml version="1.0" encoding="iso-8859-1"?>
<!-- Uploaded to: SVG Repo, www.svgrepo.com, Generator: SVG Repo Mixer Tools -->
<svg height="800px" width="800px" version="1.1" id="Capa_1" xmlns="http://www.w3.org/2000/svg" xmlns:xlink="http://www.w3.org/1999/xlink" 
	 viewBox="0 0 40.875 40.875" xml:space="preserve">
<g>
	<path style="fill:#45adb5;" d="M39.46,35.102l-5.87-5.871c-1.562-1.562-1.765-4.302-0.989-6.371
		c0.699-1.864,1.066-3.857,1.066-5.908c0-4.497-1.751-8.724-4.931-11.903c-3.18-3.18-7.406-4.931-11.902-4.931
		c-4.497,0-8.724,1.751-11.903,4.931C1.751,8.228,0,12.455,0,16.952s1.751,8.724,4.931,11.903s7.406,4.93,11.903,4.93
		c2.166,0,4.267-0.412,6.218-1.193c2.051-0.821,4.768-0.647,6.331,0.915l5.836,5.836c1.562,1.562,3.778,1.879,4.949,0.707
		S41.022,36.664,39.46,35.102z M16.833,27.786c-2.895,0-5.615-1.126-7.661-3.172s-3.173-4.767-3.173-7.661s1.127-5.614,3.173-7.661
		c2.047-2.046,4.767-3.173,7.661-3.173s5.613,1.127,7.66,3.173c2.046,2.046,3.173,4.767,3.173,7.661s-1.127,5.614-3.173,7.66
		C22.447,26.66,19.727,27.786,16.833,27.786z"/>
</g>
</svg>