<?xml version="1.0" encoding="UTF-8" standalone="no"?>
<!-- Uploaded to: SVG Repo, www.svgrepo.com, Generator: SVG Repo Mixer Tools -->

<svg
   fill="#000000"
   height="800px"
   width="800px"
   version="1.1"
   id="Capa_1"
   viewBox="0 0 297.08 297.08"
   xml:space="preserve"
   sodipodi:docname="bishop-svgrepo-com.svg"
   inkscape:version="1.2.2 (b0a8486541, 2022-12-01)"
   xmlns:inkscape="http://www.inkscape.org/namespaces/inkscape"
   xmlns:sodipodi="http://sodipodi.sourceforge.net/DTD/sodipodi-0.dtd"
   xmlns="http://www.w3.org/2000/svg"
   xmlns:svg="http://www.w3.org/2000/svg"><defs
   id="defs180" /><sodipodi:namedview
   id="namedview178"
   pagecolor="#505050"
   bordercolor="#eeeeee"
   borderopacity="1"
   inkscape:showpageshadow="0"
   inkscape:pageopacity="0"
   inkscape:pagecheckerboard="0"
   inkscape:deskcolor="#505050"
   showgrid="false"
   inkscape:zoom="0.65028763"
   inkscape:cx="289.10284"
   inkscape:cy="376.75636"
   inkscape:window-width="1900"
   inkscape:window-height="1015"
   inkscape:window-x="0"
   inkscape:window-y="0"
   inkscape:window-maximized="1"
   inkscape:current-layer="Capa_1" />
<g
   id="g175"
   transform="matrix(1.4187094,0,0,1,-62.195062,0)">
	<path
   d="m 206.873,255.08 h -3.41 c 2.214,-3.337 8.32,-14.536 -0.712,-25.6 -8.9,-10.905 -25.137,-39.546 -24.448,-64.4 h 3.57 c 4.418,0 7.667,-3.582 7.667,-8 v -1 c 0,-4.418 -3.249,-8 -7.667,-8 h -4.333 v -4.285 c 13,-8.971 20.511,-23.502 20.511,-39.914 0,-10.332 -4.86477,-21.641941 -13.67277,-37.252941 l -18.553,18.595 C 162.71423,88.334059 155.497,83.866 152.385,80.756 l -0.921,-0.933 c -3.111,-3.11 -3.106,-8.202 0.005,-11.313 l 21.676,-21.674 c -4.444,-7.069 -8.869,-13.678 -12.703,-19.224 2.881,-2.93 4.663,-6.944 4.663,-11.379 C 165.106,7.268 157.841,0 148.874,0 139.907,0 132.64,7.268 132.64,16.233 c 0,4.434 1.781,8.448 4.662,11.379 -14.585,21.101 -37.94,57.587 -37.94,76.269 0,16.853 8.178,31.724 21.178,40.625 v 3.574 h -4.667 c -4.418,0 -8.333,3.582 -8.333,8 v 1 c 0,4.418 3.915,8 8.333,8 h 3.571 c 0.689,24.855 -15.547,53.495 -24.448,64.4 -9.031,11.064 -2.926,22.263 -0.712,25.6 h -3.411 c -4.418,0 -8.333,3.582 -8.333,8 v 9 c 0,4.078 3,7.438 7,7.931 v 17.069 h 118 v -17.069 c 4,-0.493 7,-3.853 7,-7.931 v -9 c 0,-4.418 -3.249,-8 -7.667,-8 z"
   id="path173"
   sodipodi:nodetypes="scccssssccsccccccccsscsccsssscccsssccccsss" />
</g>
</svg>
