<?xml version="1.0" encoding="UTF-8" standalone="no"?>
<!-- Uploaded to: SVG Repo, www.svgrepo.com, Generator: SVG Repo Mixer Tools -->

<svg
   fill="#000000"
   height="800px"
   width="800px"
   version="1.1"
   id="Capa_1"
   viewBox="0 0 298 298"
   xml:space="preserve"
   sodipodi:docname="rook-svgrepo-com.svg"
   inkscape:version="1.2.2 (b0a8486541, 2022-12-01)"
   xmlns:inkscape="http://www.inkscape.org/namespaces/inkscape"
   xmlns:sodipodi="http://sodipodi.sourceforge.net/DTD/sodipodi-0.dtd"
   xmlns="http://www.w3.org/2000/svg"
   xmlns:svg="http://www.w3.org/2000/svg"><defs
   id="defs65" /><sodipodi:namedview
   id="namedview63"
   pagecolor="#505050"
   bordercolor="#eeeeee"
   borderopacity="1"
   inkscape:showpageshadow="0"
   inkscape:pageopacity="0"
   inkscape:pagecheckerboard="0"
   inkscape:deskcolor="#505050"
   showgrid="false"
   inkscape:zoom="0.43379883"
   inkscape:cx="124.48166"
   inkscape:cy="518.6736"
   inkscape:window-width="1900"
   inkscape:window-height="1015"
   inkscape:window-x="0"
   inkscape:window-y="0"
   inkscape:window-maximized="1"
   inkscape:current-layer="Capa_1" />
<g
   id="g60"
   transform="matrix(1.2646295,0,0,1,-39.429837,0)">
	<path
   d="m 216.923,246.538 c 3.457,-6.556 9.963,-22.777 -1.666,-39.137 C 200.508,186.65 179.942,125 193.61,83 H 207 V 0 H 191 V 17 H 175 V 0 H 157 V 17 H 141 V 0 H 124 V 17 H 108 V 0 H 91 v 83 h 14.057 c 13.668,42 -6.98,103.65 -21.73,124.401 -11.629,16.359 -5.373,32.706 -1.916,39.262 C 77.347,247.044 74,250.337 74,254.5 v 18 c 0,4.418 3.915,8.5 8.333,8.5 H 83 v 17 h 132 v -17 h 1.333 c 4.418,0 7.667,-4.082 7.667,-8.5 v -18 c 0,-4.162 -3.014,-7.58 -7.077,-7.962 z"
   id="path58" />
</g>
</svg>
