<?xml version="1.0" encoding="UTF-8" standalone="no"?>
<!-- Uploaded to: SVG Repo, www.svgrepo.com, Generator: SVG Repo Mixer Tools -->

<svg
   fill="#ffffff"
   height="800px"
   width="800px"
   version="1.1"
   id="Capa_1"
   viewBox="0 0 297 297"
   xml:space="preserve"
   sodipodi:docname="pawn-svgrepo-com.svg"
   inkscape:version="1.2.2 (b0a8486541, 2022-12-01)"
   xmlns:inkscape="http://www.inkscape.org/namespaces/inkscape"
   xmlns:sodipodi="http://sodipodi.sourceforge.net/DTD/sodipodi-0.dtd"
   xmlns="http://www.w3.org/2000/svg"
   xmlns:svg="http://www.w3.org/2000/svg"><defs
   id="defs50" /><sodipodi:namedview
   id="namedview48"
   pagecolor="#505050"
   bordercolor="#eeeeee"
   borderopacity="1"
   inkscape:showpageshadow="0"
   inkscape:pageopacity="0"
   inkscape:pagecheckerboard="0"
   inkscape:deskcolor="#505050"
   showgrid="false"
   inkscape:zoom="0.35299316"
   inkscape:cx="-458.93241"
   inkscape:cy="473.09699"
   inkscape:window-width="1900"
   inkscape:window-height="1015"
   inkscape:window-x="0"
   inkscape:window-y="0"
   inkscape:window-maximized="1"
   inkscape:current-layer="Capa_1" />
<g
   id="g45"
   transform="matrix(1.0521627,0,0,1,-7.7461857,0)">
	<path
   d="m 223.333,247 h -5.926 c 2.607,-3.811 10.798,-18.024 -0.727,-32.248 C 203.346,198.292 176.817,149.004 189.356,116 h 0.977 c 4.418,0 7.667,-3.582 7.667,-8 v -1 c 0,-4.418 -3.249,-8 -7.667,-8 h -1.225 c 10.917,-10.466 17.725,-25.184 17.725,-41.5 0,-31.756 -25.744,-57.5 -57.5,-57.5 -31.756,0 -57.5,25.744 -57.5,57.5 0,16.316 6.808,31.034 17.725,41.5 h -2.225 C 102.915,99 99,102.582 99,107 v 1 c 0,4.418 3.915,8 8.333,8 h 1.979 c 12.539,33.004 -13.99,82.292 -27.324,98.752 C 70.464,228.976 78.654,243.189 81.261,247 H 74.333 C 69.915,247 66,250.582 66,255 v 18 c 0,4.418 3.915,8 8.333,8 H 75 v 16 h 148 v -16 c 5,0 8,-3.582 8,-8 v -18 c 0,-4.418 -3.249,-8 -7.667,-8 z"
   id="path43" />
</g>
</svg>
